<svg xmlns="http://www.w3.org/2000/svg" viewBox="0 0 1040 858" font-family="'Helvetica Neue',Arial,sans-serif">
  <defs>
    <style>
      .title  { font-size:26px; font-weight:700; fill:#0f2540; }
      .sub    { font-size:14px; fill:#6b7a8d; }
      .bndy   { fill:none; stroke:#9bb0c4; stroke-width:2; stroke-dasharray:8 6; }
      .det    { fill:#1c3a5e; }
      .fuse   { fill:#1bb3a3; }
      .alert  { fill:#f5a623; }
      .topic  { fill:#0f2540; }
      .qry    { fill:#33506f; }
      .w      { fill:#ffffff; }
      .wb     { fill:#ffffff; font-weight:700; }
      .dk     { fill:#06302b; font-weight:700; }
      .mut    { font-size:11px; }
      .flow   { stroke:#5b7186; stroke-width:2.2; fill:none; }
      .ftnt   { font-size:12px; fill:#6b7a8d; }
    </style>
    <marker id="a2" markerWidth="11" markerHeight="11" refX="8" refY="4" orient="auto">
      <path d="M0,0 L9,4 L0,8 z" fill="#5b7186"/>
    </marker>
  </defs>

  <rect width="1040" height="858" fill="#ffffff"/>
  <text x="40" y="48" class="title">DroneX · Container Model</text>
  <text x="40" y="72" class="sub">Divisions (bounded contexts) over the mesh · domain events stay internal, facts cross the mesh</text>

  <!-- boundary -->
  <rect x="34" y="96" width="972" height="640" rx="16" class="bndy"/>
  <text x="50" y="120" font-size="13" fill="#9bb0c4" font-weight="700">DroneX service boundary</text>

  <!-- Sensor adapter row -->
  <g>
    <rect x="60"  y="140" width="200" height="92" rx="10" class="det"/>
    <text x="160" y="178" text-anchor="middle" class="wb" font-size="15">detect_rf</text>
    <text x="160" y="200" text-anchor="middle" class="w mut">SDR demod,</text>
    <text x="160" y="216" text-anchor="middle" class="w mut">control-link signatures</text>

    <rect x="280" y="140" width="200" height="92" rx="10" class="det"/>
    <text x="380" y="178" text-anchor="middle" class="wb" font-size="15">detect_remote_id</text>
    <text x="380" y="200" text-anchor="middle" class="w mut">ESP32 WiFi/BT,</text>
    <text x="380" y="216" text-anchor="middle" class="w mut">decode broadcast ID</text>

    <rect x="500" y="140" width="200" height="92" rx="10" class="det"/>
    <text x="600" y="178" text-anchor="middle" class="wb" font-size="15">detect_acoustic</text>
    <text x="600" y="200" text-anchor="middle" class="w mut">mic array,</text>
    <text x="600" y="216" text-anchor="middle" class="w mut">rotor classifier</text>

    <rect x="720" y="140" width="200" height="92" rx="10" class="det"/>
    <text x="820" y="178" text-anchor="middle" class="wb" font-size="15">detect_optical</text>
    <text x="820" y="200" text-anchor="middle" class="w mut">EO/IR camera,</text>
    <text x="820" y="216" text-anchor="middle" class="w mut">vision inference</text>
  </g>
  <text x="930" y="132" text-anchor="end" class="mut" fill="#6b7a8d">each = edge daemon, advertises a capability · embeds a compact classifier</text>

  <!-- topic 1 -->
  <rect x="60" y="276" width="640" height="52" rx="26" class="topic"/>
  <text x="380" y="300" text-anchor="middle" class="wb" font-size="15">topic: airspace.contact_observed</text>
  <text x="380" y="318" text-anchor="middle" class="w mut">pub/sub · stable public fact schema</text>

  <!-- fuse -->
  <rect x="180" y="380" width="360" height="120" rx="12" class="fuse"/>
  <text x="360" y="416" text-anchor="middle" class="dk" font-size="17">fuse_airspace</text>
  <text x="360" y="442" text-anchor="middle" class="dk" font-size="12" font-weight="400">process manager:</text>
  <text x="360" y="460" text-anchor="middle" class="dk" font-size="12" font-weight="400">on_contact_observed_correlate_track</text>
  <text x="360" y="484" text-anchor="middle" font-size="11" fill="#06302b">multi-sensor triangulation → confirmed tracks</text>

  <!-- edge model provenance (candidate / offline) -->
  <rect x="600" y="380" width="320" height="120" rx="12" fill="#eef1f5" stroke="#9bb0c4" stroke-width="2" stroke-dasharray="8 6"/>
  <text x="760" y="412" text-anchor="middle" font-size="15" font-weight="700" fill="#33506f">Edge model provenance</text>
  <text x="760" y="431" text-anchor="middle" font-size="11" fill="#6b7a8d">candidate · offline · roadmap</text>
  <text x="760" y="455" text-anchor="middle" font-size="12" fill="#33506f">compact classifiers evolved via</text>
  <text x="760" y="473" text-anchor="middle" font-size="12" fill="#33506f">federated neuroevolution</text>
  <text x="760" y="491" text-anchor="middle" font-size="11" fill="#6b7a8d">macula-tweann · macula-neuroevolution</text>

  <!-- topic 2 -->
  <rect x="180" y="544" width="360" height="52" rx="26" class="topic"/>
  <text x="360" y="568" text-anchor="middle" class="wb" font-size="15">topic: airspace.track_confirmed</text>
  <text x="360" y="586" text-anchor="middle" class="w mut">pub/sub · escalation-grade</text>

  <!-- alert -->
  <rect x="180" y="640" width="360" height="78" rx="12" class="alert"/>
  <text x="360" y="676" text-anchor="middle" class="dk" font-size="16">alert_operators</text>
  <text x="360" y="700" text-anchor="middle" font-size="12" fill="#5a3d00">console notify + C2 escalation</text>

  <!-- query side -->
  <rect x="600" y="640" width="320" height="78" rx="12" class="qry"/>
  <text x="760" y="676" text-anchor="middle" class="wb" font-size="16">query_airspace</text>
  <text x="760" y="700" text-anchor="middle" class="w mut" font-size="12">read models: live tracks, history</text>

  <!-- external: operators console below boundary -->
  <rect x="180" y="752" width="360" height="48" rx="10" fill="#1c3a5e"/>
  <text x="360" y="781" text-anchor="middle" class="wb" font-size="14">Operator console (hecate-app-dronex)</text>

  <!-- Flows -->
  <path class="flow" marker-end="url(#a2)" d="M160,232 L300,276"/>
  <path class="flow" marker-end="url(#a2)" d="M380,232 L380,276"/>
  <path class="flow" marker-end="url(#a2)" d="M600,232 L460,276"/>
  <path class="flow" marker-end="url(#a2)" d="M820,232 L500,276"/>

  <path class="flow" marker-end="url(#a2)" d="M360,328 L360,380"/>
  <text x="372" y="360" class="mut" fill="#0f2540">subscribe</text>

  <!-- evolved models shipped to sensor slices (candidate) -->
  <path marker-end="url(#a2)" d="M760,380 C760,300 825,272 822,232" fill="none" stroke="#9bb0c4" stroke-width="2" stroke-dasharray="6 6"/>
  <text x="772" y="322" class="mut" fill="#6b7a8d">ships evolved models</text>

  <path class="flow" marker-end="url(#a2)" d="M360,500 L360,544"/>
  <text x="372" y="528" class="mut" fill="#0f2540">publish track</text>

  <path class="flow" marker-end="url(#a2)" d="M360,596 L360,640"/>
  <path class="flow" marker-end="url(#a2)" d="M540,570 L600,648"/>
  <path class="flow" marker-end="url(#a2)" d="M360,718 L360,752"/>

  <text x="40" y="838" class="ftnt" fill="#6b7a8d">C4 Level 2 (Container). Sensor adapters at the edge; fusion + alerting on the edge cluster. Hot loop stays local; mesh shares confirmed tracks.</text>
</svg>
