<svg xmlns="http://www.w3.org/2000/svg" viewBox="0 0 1040 720" font-family="'Helvetica Neue',Arial,sans-serif">
  <defs>
    <linearGradient id="sky" x1="0" y1="0" x2="0" y2="1">
      <stop offset="0" stop-color="#bfe2fb"/>
      <stop offset="1" stop-color="#eaf6ff"/>
    </linearGradient>

    <!-- drone icon -->
    <g id="drone">
      <line x1="-34" y1="-22" x2="34" y2="22" stroke="#3a4654" stroke-width="6"/>
      <line x1="34" y1="-22" x2="-34" y2="22" stroke="#3a4654" stroke-width="6"/>
      <circle cx="-34" cy="-22" r="13" fill="#5b6b7d"/>
      <circle cx="34"  cy="-22" r="13" fill="#5b6b7d"/>
      <circle cx="-34" cy="22"  r="13" fill="#5b6b7d"/>
      <circle cx="34"  cy="22"  r="13" fill="#5b6b7d"/>
      <rect x="-18" y="-12" width="36" height="24" rx="6" fill="#2b3645"/>
    </g>

    <!-- watcher post -->
    <g id="watcher">
      <rect x="-7" y="0" width="14" height="78" rx="5" fill="#1c3a5e"/>
      <circle cx="0" cy="-6" r="26" fill="#1bb3a3"/>
      <circle cx="0" cy="-6" r="11" fill="#06302b"/>
      <circle cx="4" cy="-10" r="4" fill="#bff4ec"/>
      <path d="M-30,-30 A40 40 0 0 1 30,-30" fill="none" stroke="#1bb3a3" stroke-width="3" opacity="0.55"/>
      <path d="M-40,-38 A52 52 0 0 1 40,-38" fill="none" stroke="#1bb3a3" stroke-width="3" opacity="0.3"/>
    </g>
  </defs>

  <rect width="1040" height="720" fill="#ffffff"/>
  <rect x="0" y="0" width="1040" height="470" fill="url(#sky)"/>
  <rect x="0" y="470" width="1040" height="250" fill="#dceccf"/>
  <rect x="0" y="470" width="1040" height="6" fill="#c2dcae"/>

  <text x="40" y="58" font-size="30" font-weight="700" fill="#0f2540">A neighbourhood watch for the sky</text>

  <!-- drone -->
  <use href="#drone" x="420" y="150"/>
  <text x="420" y="210" text-anchor="middle" font-size="15" fill="#3a4654">a drone appears</text>

  <!-- sightlines from watchers to drone -->
  <g stroke="#1bb3a3" stroke-width="2" stroke-dasharray="3 7" opacity="0.5">
    <line x1="150" y1="500" x2="408" y2="160"/>
    <line x1="330" y1="500" x2="414" y2="160"/>
    <line x1="540" y1="500" x2="428" y2="160"/>
    <line x1="690" y1="500" x2="432" y2="160"/>
  </g>

  <!-- whisper line linking watchers -->
  <path d="M150,486 L330,486 L540,486 L690,486" fill="none" stroke="#f5a623" stroke-width="3" stroke-dasharray="2 10" stroke-linecap="round"/>
  <text x="360" y="540" text-anchor="middle" font-size="14" fill="#b5760a">…they quietly tell each other what they see…</text>

  <!-- watchers -->
  <use href="#watcher" x="150" y="430"/>
  <use href="#watcher" x="330" y="430"/>
  <use href="#watcher" x="540" y="430"/>
  <use href="#watcher" x="690" y="430"/>
  <text x="420" y="430" text-anchor="middle" font-size="15" fill="#0f2540">many small, cheap watchers — each notices a little</text>

  <!-- guard with single clear picture -->
  <rect x="800" y="408" width="190" height="150" rx="14" fill="#ffffff" stroke="#1c3a5e" stroke-width="2.5"/>
  <text x="895" y="436" text-anchor="middle" font-size="14" font-weight="700" fill="#0f2540">the guard sees</text>
  <text x="895" y="455" text-anchor="middle" font-size="14" font-weight="700" fill="#0f2540">ONE clear picture</text>
  <use href="#drone" transform="translate(890,498) scale(0.6)"/>
  <g transform="translate(957,520)">
    <circle r="16" fill="#3aa76d"/>
    <path d="M-7,0 L-2,6 L8,-7" fill="none" stroke="#fff" stroke-width="4" stroke-linecap="round" stroke-linejoin="round"/>
  </g>

  <!-- caption strip -->
  <rect x="40" y="600" width="960" height="86" rx="12" fill="#0f2540"/>
  <text x="60" y="634" font-size="16" fill="#eaf2f8">No expensive central tower. No cloud. The watchers keep working — and keep talking —</text>
  <text x="60" y="662" font-size="16" fill="#eaf2f8">even when the internet drops. Add a watcher, the picture just gets sharper.</text>
</svg>
