<svg xmlns="http://www.w3.org/2000/svg" viewBox="0 0 1040 720" font-family="'Helvetica Neue',Arial,sans-serif">
  <defs>
    <radialGradient id="hit" cx="0.5" cy="0.5" r="0.5">
      <stop offset="0" stop-color="#f5a623" stop-opacity="0.9"/>
      <stop offset="1" stop-color="#f5a623" stop-opacity="0"/>
    </radialGradient>
    <g id="drone2">
      <line x1="-30" y1="-20" x2="30" y2="20" stroke="#2b3645" stroke-width="6"/>
      <line x1="30" y1="-20" x2="-30" y2="20" stroke="#2b3645" stroke-width="6"/>
      <circle cx="-30" cy="-20" r="11" fill="#5b6b7d"/>
      <circle cx="30"  cy="-20" r="11" fill="#5b6b7d"/>
      <circle cx="-30" cy="20"  r="11" fill="#5b6b7d"/>
      <circle cx="30"  cy="20"  r="11" fill="#5b6b7d"/>
      <rect x="-16" y="-11" width="32" height="22" rx="6" fill="#1c2531"/>
    </g>
    <g id="sensor">
      <rect x="-26" y="-14" width="52" height="34" rx="7" fill="#1c3a5e"/>
      <circle cx="0" cy="3" r="9" fill="#1bb3a3"/>
      <rect x="-6" y="20" width="12" height="34" rx="4" fill="#33506f"/>
    </g>
  </defs>

  <rect width="1040" height="720" fill="#ffffff"/>
  <rect x="0" y="0" width="1040" height="560" fill="#f3f8fc"/>
  <rect x="0" y="560" width="1040" height="160" fill="#e6eef5"/>

  <text x="40" y="58" font-size="30" font-weight="700" fill="#0f2540">Many ears, one picture</text>
  <text x="40" y="86" font-size="16" fill="#6b7a8d">no single sensor is sure — together they are</text>

  <!-- cones (uncertainty wedges) toward the drone -->
  <polygon points="180,540 430,150 600,230" fill="#1bb3a3" opacity="0.22"/>
  <polygon points="520,560 455,150 585,150" fill="#5b9bd5" opacity="0.22"/>
  <polygon points="860,540 440,230 610,150" fill="#f5a623" opacity="0.22"/>

  <!-- cone centre-lines -->
  <line x1="180" y1="540" x2="510" y2="175" stroke="#1bb3a3" stroke-width="2" stroke-dasharray="6 6" opacity="0.7"/>
  <line x1="520" y1="560" x2="520" y2="175" stroke="#5b9bd5" stroke-width="2" stroke-dasharray="6 6" opacity="0.7"/>
  <line x1="860" y1="540" x2="532" y2="175" stroke="#f5a623" stroke-width="2" stroke-dasharray="6 6" opacity="0.7"/>

  <!-- intersection glow + drone -->
  <circle cx="520" cy="165" r="90" fill="url(#hit)"/>
  <use href="#drone2" x="520" y="165"/>

  <!-- located pin -->
  <g transform="translate(612,120)">
    <path d="M0,0 C26,0 26,30 0,52 C-26,30 -26,0 0,0 Z" fill="#e0492f"/>
    <circle cx="0" cy="20" r="9" fill="#fff"/>
  </g>
  <text x="660" y="150" font-size="15" font-weight="700" fill="#0f2540">located</text>

  <!-- sensors -->
  <use href="#sensor" x="180" y="540"/>
  <use href="#sensor" x="520" y="560"/>
  <use href="#sensor" x="860" y="540"/>
  <text x="180" y="630" text-anchor="middle" font-size="14" fill="#0f2540">sensor 1 — "roughly that way"</text>
  <text x="520" y="650" text-anchor="middle" font-size="14" fill="#0f2540">sensor 2 — "roughly that way"</text>
  <text x="860" y="630" text-anchor="middle" font-size="14" fill="#0f2540">sensor 3 — "roughly that way"</text>

  <!-- caption -->
  <rect x="40" y="664" width="960" height="44" rx="10" fill="#0f2540"/>
  <text x="520" y="692" text-anchor="middle" font-size="16" fill="#eaf2f8">Each look is uncertain. Where the looks cross is the drone. Many guesses become one confident location.</text>
</svg>
